# xmcd CD database file
#
# Track frame offsets:
#	150
#	18790
#	40410
#	66537
#	94717
#	116740
#	153167
#	193707
#	215980
#	253287
#
# Disc length: 4238 seconds
#
# Revision: 0
# Processed by: cddbd v1.5.1PL0 Copyright (c) Steve Scherf et al.
# Submitted via: CDex 1.51
#
DISCID=93108c0a
DTITLE=Various Artist - The Dawn of a New Age Disc 3
DYEAR=1999
DGENRE=New Age
TTITLE0=Ishuara - White Light
TTITLE1=Purity - New Age Dawn
TTITLE2=Crystal Moon - Pamuya
TTITLE3=Phil Merrall - Fountain of Eternal Youth
TTITLE4=Jake Stephenson - The Spring of Life
TTITLE5=Crystal Keys - Gar Away Journey
TTITLE6=Crystal Moon - Sundream
TTITLE7=Chakra - Dance of the Leaves
TTITLE8=Ishuara - Happiness
TTITLE9=Crystal Moon - Butterfly
EXTD=YEAR: 1999
EXTT0=
EXTT1=
EXTT2=
EXTT3=
EXTT4=
EXTT5=
EXTT6=
EXTT7=
EXTT8=
EXTT9=
PLAYORDER=
